**ABCDEFGHIJKLMNOPQRSTUVWXYZabcdefghijklmnopqrstuvwxyz**************************
**PARASOLID !"#$%&'()*+,-./:;<=>?@[\]^_`{|}~0123456789**************************
**PART1;
MC=AMD64;
MC_MODEL=AMD64 Family 25 Model 80 Stepping 0, AuthenticAMD;
MC_ID=unknown;
OS=Windows_NT;
OS_RELEASE=unknown;
FRU=Parasolid Version 33.1, build 255,  1- 8-2022;
APPL=SOLIDWORKS 2022-2022167;
SITE=;
USER=unknown;
FORMAT=text;
GUISE=transmit;
KEY=FILEassembly.x_t;
DATE=Tue May 28 01:09:14 2024;
**PART2;
SCH=SCH_3301255_33103;
USFLD_SIZE=0;
**PART3;
**END_OF_HEADER*****************************************************************
T51 : TRANSMIT FILE created by modeller version 330125523 SCH_3301255_33103_1300
6230 0 10 21 CCCCI7 lattice222 0 CCCI4 mesh1006 0 I8 polyline1008 0 CCCCCCCCCCA1
6 mesh_offset_data206 0 Z1 9 2 3 0 0 0 0 0 0 0 0 1e3 1e-8 0 0 0 1 0 1 4 0 81 255
 1 2 9 5 1 0 0 0 0 0 70 11 CI9 list_type0 0 1 uI10 notransmit0 0 1 lCCCDCCDI12 f
inger_index0 0 1 dI12 finger_block1012 0 CZ3 0 4 T1 0 0 1 20 1 6 6 11 255 4 7 0
 1 7 8 1 9 0 0 0 12 35 CCCI7 lattice222 0 CCCI4 mesh1006 0 I8 polyline1008 0 CCC
CCCCDI5 owner1040 0 CCCCCCI13 boundary_mesh1006 0 I17 boundary_polyline1008 0 CC
CA16 index_map_offset0 0 1 dA9 index_map82 0 A17 node_id_index_map82 0 A20 schem
a_embedding_map82 0 A5 child12 0 A14 lowest_node_id0 0 1 dA16 mesh_offset_data20
6 0 Z7 208 10 11 0 0 0 0 0 0 0 1e3 1e-8 4 12 0 1 0 1 1 13 14 15 16 0 0 17 18 19
 0 0 0 0 0 0 0 100 10 CCCCCCCCCA9 precision229 0 Z8 8 4 0 0 -3491481338843135e-3
0 0 1 0 1 0 -1 0 -3491481338843135e-30 -.002624973524361835 .01264120715344324 .
0251956660840661 1 3 ?0 11 9 5 0 1 12 20 1 21 4 0 0 12 12 377 22 23 0 0 0 0 0 0
 0 1e3 1e-8 9 24 7 1 0 1 1 25 26 27 28 0 0 29 30 31 0 0 0 0 0 0 0 100 20 6 9 0 0
 -366082279099053e-43 -1 698296267768627e-29 698296267768625e-29 -69829626776862
7e-29 -1 1 1219044193948984e-44 698296267768625e-29 .02713016022322565 .01387138
30206476 .01461250823457974 1 3 ?0 11 21 3 0 1 24 32 1 33 9 0 0 12 24 472 34 35
 0 0 0 0 0 0 0 1e3 1e-8 21 36 12 1 0 1 1 37 38 39 40 0 0 41 42 43 0 0 0 0 0 0 0
 100 32 4 21 0 0 1 0 0 0 1 0 0 0 1 -.000869839776774255 .01347138302064746 .0167
1797690030045 1 1 ?0 11 33 1 0 1 36 44 1 0 21 0 0 12 36 490 45 46 0 0 0 0 0 0 0
 1e3 1e-8 33 47 24 1 0 1 1 48 49 50 51 0 0 52 53 54 0 0 0 0 0 0 0 100 44 2 33 0
 0 1 0 0 0 1 0 0 0 1 -.000869839776774255 .01347138302064746 .01671797690030045
 1 1 ?0 81 1 45 490 5 36 55 0 0 0 56 70 46 0 4 T36 0 0 4 20 1 57 57 13 255 48 99
 0 36 0 58 0 0 59 0 50 255 49 94 0 58 60 0 0 +0 0 .008 1 0 0 0 0 -1 30 255 50 98
 0 53 61 0 0 +0 0 .008 0 0 -1 29 255 51 75 0 62 63 0 0 4e-4 0 19 8 CCCCCCCA5 own
er12 0 Z52 33 0 36 59 0 64 V0 16 255 53 82 0 ?65 0 66 50 0 0 36 18 255 54 30 0 6
7 0 68 69 ?36 17 255 67 0 70 71 72 54 73 74 0 75 +18 68 27 0 72 54 76 77 ?36 29
 69 32 0 54 77 78 0 4e-4 .008 29 77 29 0 68 79 69 .002 4e-4 .008 29 78 78 0 80 6
9 81 0 0 0 18 80 69 0 82 83 0 78 ?36 29 81 77 0 83 78 63 .002 0 0 18 83 68 0 84
 85 80 81 ?36 29 63 76 0 85 81 51 .002 4e-4 0 18 85 67 0 86 62 83 63 ?36 17 86 0
 87 88 89 85 90 91 0 92 +18 62 66 0 93 94 85 51 ?36 17 93 0 95 75 92 62 96 97 0
 98 +18 94 21 0 99 76 62 100 ?36 17 99 0 101 65 102 94 103 104 0 71 -18 76 24 0
 103 68 94 79 ?36 29 100 23 0 94 0 79 0 0 .008 29 79 26 0 76 100 77 .002 0 .008
 17 103 0 70 72 71 76 99 104 0 102 +15 255 70 4 0 71 105 0 17 72 0 70 67 103 68
 106 107 0 88 +17 71 0 70 103 67 94 108 109 0 110 +16 104 9 0 ?103 107 109 111 0
 0 36 17 102 0 101 99 84 76 89 66 0 106 -15 101 87 0 84 112 0 17 84 0 101 102 65
 83 82 113 0 89 +17 89 0 87 86 106 83 102 66 0 90 +16 66 81 0 ?89 53 114 61 0 0
 36 17 106 0 87 89 88 76 72 107 0 0 -15 87 85 0 86 115 0 17 88 0 87 106 86 68 92
 114 0 73 -16 107 13 0 ?72 74 104 116 0 0 36 16 74 17 0 ?67 117 107 118 0 0 36 3
0 116 15 0 107 111 118 0 +.002 0 .008 0 1 0 30 111 11 0 104 119 116 0 +0 0 .008
 1 0 0 30 118 19 0 74 116 120 0 +0 4e-4 .008 -1 0 0 30 120 74 0 121 118 122 0 +0
 0 0 0 -1 0 16 121 62 0 ?123 113 0 120 0 0 36 30 122 73 0 113 120 124 0 +0 0 0 1
 0 0 16 113 58 0 ?84 91 121 122 0 0 36 30 124 72 0 91 122 125 0 +.002 0 0 0 1 0
 16 91 54 0 ?86 97 113 124 0 0 36 30 125 71 0 97 124 126 0 +0 4e-4 0 -1 0 0 16 9
7 50 0 ?93 109 91 125 0 0 36 30 126 95 0 117 125 127 0 +0 4e-4 .008 0 0 -1 16 11
7 79 0 ?98 114 74 126 0 0 36 30 127 96 0 114 126 61 0 +.002 4e-4 .008 0 0 -1 16
 114 80 0 ?92 66 117 127 0 0 36 30 61 97 0 66 127 50 0 +.002 0 .008 0 0 -1 17 92
 0 95 93 73 85 88 114 0 96 +15 95 83 0 93 128 0 17 73 0 95 92 75 68 67 74 0 0 -1
7 96 0 129 90 130 85 93 97 0 0 -15 129 49 0 130 131 0 17 90 0 129 82 96 83 86 91
 0 0 -17 130 0 129 96 82 62 123 121 0 0 -17 82 0 129 130 90 80 84 113 0 65 -17 1
23 0 132 110 98 80 130 121 0 0 +15 132 89 0 123 58 0 17 110 0 132 108 123 94 65
 53 0 0 -17 98 0 132 123 108 62 75 117 0 130 +17 108 0 132 98 110 54 71 109 0 0
 -17 75 0 95 73 93 54 98 117 0 108 -16 109 5 0 ?71 104 97 119 0 0 36 30 119 7 0
 109 0 111 0 +0 0 .008 0 -1 0 17 65 0 101 84 99 80 110 53 0 123 +14 255 58 90 13
3 ?112 0 132 48 49 -0 0 112 0 64 81 1 133 484 134 58 135 0 0 136 137 14 112 88 1
36 ?115 58 101 48 60 -0 0 115 58 64 13 64 34 0 0 0 0 0 0 52 58 81 1 136 485 134
 112 138 0 133 139 140 14 115 86 139 ?128 112 87 48 141 -0 0 128 112 64 50 60 93
 0 112 141 49 0 +0 0 .008 0 1 0 0 0 1 50 141 92 0 115 142 60 0 +.002 0 .008 -1 0
 0 0 0 1 50 142 91 0 128 143 141 0 +0 4e-4 .008 0 -1 0 0 0 -1 14 128 84 144 ?105
 115 95 48 142 -0 0 105 115 64 50 143 70 0 131 145 142 0 +0 0 0 0 0 -1 -1 0 0 14
 131 48 146 ?0 105 129 48 143 +0 0 0 105 64 50 145 3 0 105 0 143 0 +0 0 .008 0 0
 -1 -1 0 0 14 105 1 147 ?131 128 70 48 145 -0 0 131 128 64 81 1 147 488 134 105
 148 0 144 146 149 80 255 1 134 0 150 8001 0 0 0 0 3 5 0 0 0 FFFFTFTFFFFFFF2 81
 1 148 482 151 105 0 147 152 0 153 81 1 144 487 134 128 154 0 139 147 155 81 1 1
46 489 134 131 152 0 147 0 156 83 255 3 149 .431372549019608 .450980392156863 .4
31372549019608 81 1 152 480 151 131 0 146 154 148 157 83 3 156 .431372549019608
 .450980392156863 .431372549019608 80 1 151 158 159 9000 1 1 1 1 1 1 1 1 0 FFFFT
FTFFFFFFF1 81 1 154 478 151 128 0 144 160 152 161 82 255 1 157 354746473 81 1 16
0 476 151 115 0 139 138 154 162 82 1 161 355663977 81 1 139 486 134 115 160 0 13
6 144 163 81 1 138 474 151 112 0 136 135 160 164 82 1 162 355926121 81 1 135 472
 151 58 0 133 0 138 165 82 1 164 356188265 82 1 165 356450409 83 3 163 .43137254
9019608 .450980392156863 .431372549019608 79 255 14 159 SWEntUnchanged83 3 155 .
431372549019608 .450980392156863 .431372549019608 82 1 153 349110377 79 15 150 S
DL/TYSA_COLOUR83 3 140 .431372549019608 .450980392156863 .431372549019608 83 3 1
37 .431372549019608 .450980392156863 .431372549019608 19 59 100 0 36 0 52 48 S0
 74 4 CI16 index_map_offset0 0 1 dCCZ20 57 4 0 0 148 55 146 45 0 0 0 0 0 0 0 0 0
 0 0 0 0 0 0 0 81 2 55 138 166 36 0 45 0 0 167 0 80 2 166 168 169 8004 0 0 0 0 3
 5 0 0 0 FFTFFFFFFFFFFF2 3 83 1 167 1 79 16 169 SDL/TYSA_DENSITY80 1 5 170 171 8
017 0 0 0 0 0 0 0 0 0 TTTTTTTTTTTTTF3 84 255 8 56 supports79 13 171 SDL/TYSA_NAM
E81 1 34 472 5 24 172 0 0 0 173 70 35 0 4 T24 0 0 4 20 1 174 174 13 37 99 0 24 0
 175 0 0 176 0 50 38 94 0 175 177 0 0 +.026 4e-4 .008 1 0 0 0 0 -1 30 39 98 0 42
 178 0 0 +.026 0 .008 0 0 -1 29 40 75 0 179 180 0 .026 4e-4 0 19 41 33 0 24 176
 0 181 V0 16 42 82 0 ?182 0 183 39 0 0 24 18 43 30 0 184 0 185 186 ?24 17 184 0
 187 188 189 43 190 191 0 192 +18 185 27 0 189 43 193 194 ?24 29 186 32 0 43 194
 195 .026 4e-4 .008 29 194 29 0 185 196 186 .028 4e-4 .008 29 195 78 0 197 186 1
98 .026 0 0 18 197 69 0 199 200 0 195 ?24 29 198 77 0 200 195 180 .028 0 0 18 20
0 68 0 201 202 197 198 ?24 29 180 76 0 202 198 40 .028 4e-4 0 18 202 67 0 203 17
9 200 180 ?24 17 203 0 204 205 206 202 207 208 0 209 +18 179 66 0 210 211 202 40
 ?24 17 210 0 212 192 209 179 213 214 0 215 +18 211 21 0 216 193 179 217 ?24 17
 216 0 218 182 219 211 220 221 0 188 -18 193 24 0 220 185 211 196 ?24 29 217 23
 0 211 0 196 .026 0 .008 29 196 26 0 193 217 194 .028 0 .008 17 220 0 187 189 18
8 193 216 221 0 219 +15 187 4 0 188 222 0 17 189 0 187 184 220 185 223 224 0 205
 +17 188 0 187 220 184 211 225 226 0 227 +16 221 9 0 ?220 224 226 228 0 0 24 17
 219 0 218 216 201 193 206 183 0 223 -15 218 87 0 201 229 0 17 201 0 218 219 182
 200 199 230 0 206 +17 206 0 204 203 223 200 219 183 0 207 +16 183 81 0 ?206 42
 231 178 0 0 24 17 223 0 204 206 205 193 189 224 0 0 -15 204 85 0 203 232 0 17 2
05 0 204 223 203 185 209 231 0 190 -16 224 13 0 ?189 191 221 233 0 0 24 16 191 1
7 0 ?184 234 224 235 0 0 24 30 233 15 0 224 228 235 0 +.028 4e-4 .008 0 1 0 30 2
28 11 0 221 236 233 0 +.026 0 .008 1 0 0 30 235 19 0 191 233 237 0 +.026 4e-4 .0
08 -1 -623416249179164e-30 0 30 237 74 0 238 235 239 0 +.026 4e-4 0 0 -1 0 16 23
8 62 0 ?240 230 0 237 0 0 24 30 239 73 0 230 237 241 0 +.026 0 0 1 0 0 16 230 58
 0 ?201 208 238 239 0 0 24 30 241 72 0 208 239 242 0 +.028 4e-4 0 0 1 0 16 208 5
4 0 ?203 214 230 241 0 0 24 30 242 71 0 214 241 243 0 +.026 4e-4 0 -1 -623416249
179164e-30 0 16 214 50 0 ?210 226 208 242 0 0 24 30 243 95 0 234 242 244 0 +.026
 4e-4 .008 0 0 -1 16 234 79 0 ?215 231 191 243 0 0 24 30 244 96 0 231 243 178 0
 +.028 4e-4 .008 0 0 -1 16 231 80 0 ?209 183 234 244 0 0 24 30 178 97 0 183 244
 39 0 +.028 0 .008 0 0 -1 17 209 0 212 210 190 202 205 231 0 213 +15 212 83 0 21
0 245 0 17 190 0 212 209 192 185 184 191 0 0 -17 213 0 246 207 247 202 210 214 0
 0 -15 246 49 0 247 248 0 17 207 0 246 199 213 200 203 208 0 0 -17 247 0 246 213
 199 179 240 238 0 0 -17 199 0 246 247 207 197 201 230 0 182 -17 240 0 249 227 2
15 197 247 238 0 0 +15 249 89 0 240 175 0 17 227 0 249 225 240 211 182 42 0 0 -1
7 215 0 249 240 225 179 192 234 0 247 +17 225 0 249 215 227 43 188 226 0 0 -17 1
92 0 212 190 210 43 215 234 0 225 -16 226 5 0 ?188 221 214 236 0 0 24 30 236 7 0
 226 0 228 0 +.026 4e-4 .008 0 -1 0 17 182 0 218 201 216 197 227 42 0 240 +14 17
5 90 250 ?229 0 249 37 38 -0 0 229 0 181 81 1 250 466 134 175 251 0 0 252 253 14
 229 88 252 ?232 175 218 37 177 -0 0 232 175 181 13 181 34 0 0 0 0 0 0 41 175 81
 1 252 467 134 229 254 0 250 255 256 14 232 86 255 ?245 229 204 37 257 -0 0 245
 229 181 50 177 93 0 229 257 38 0 +.026 0 .008 0 1 0 0 0 1 50 257 92 0 232 258 1
77 0 +.028 4e-4 .008 -1 0 0 0 0 1 50 258 91 0 245 259 257 0 +.026 4e-4 .008 6234
16249179164e-30 -1 0 1 623416249179164e-30 0 14 245 84 260 ?222 232 212 37 258 -
0 0 222 232 181 50 259 70 0 248 261 258 0 +0 0 0 0 0 1 1 0 0 14 248 48 262 ?0 22
2 246 37 259 -0 0 0 222 181 50 261 3 0 222 0 259 0 +0 0 .008 0 0 1 1 0 0 14 222
 1 263 ?248 245 187 37 261 +0 0 248 245 181 81 1 263 470 134 222 264 0 260 262 2
65 81 1 264 464 151 222 0 263 266 0 267 81 1 260 469 134 245 268 0 255 263 269 8
1 1 262 471 134 248 266 0 263 0 270 83 3 265 .431372549019608 .450980392156863 .
431372549019608 81 1 266 462 151 248 0 262 268 264 271 83 3 270 .431372549019608
 .450980392156863 .431372549019608 81 1 268 460 151 245 0 260 272 266 273 82 1 2
71 366477417 81 1 272 458 151 232 0 255 254 268 274 82 1 273 367394921 81 1 255
 468 134 232 272 0 252 260 275 81 1 254 456 151 229 0 252 251 272 276 82 1 274 3
67657065 81 1 251 454 151 175 0 250 0 254 277 82 1 276 367919209 82 1 277 368181
353 83 3 275 .431372549019608 .450980392156863 .431372549019608 83 3 269 .431372
549019608 .450980392156863 .431372549019608 82 1 267 360841321 83 3 256 .4313725
49019608 .450980392156863 .431372549019608 83 3 253 .431372549019608 .4509803921
56863 .431372549019608 19 176 100 0 24 0 41 37 S0 74 20 174 4 0 0 264 172 262 34
 0 0 0 0 0 0 0 0 0 0 0 0 0 0 0 0 81 2 172 138 166 24 0 34 0 0 278 0 83 1 278 1 8
4 8 173 supports81 1 22 377 5 12 279 0 0 0 280 70 23 0 4 T12 0 0 4 20 1 281 281
 13 25 3 0 12 0 282 0 0 283 0 51 255 26 45 0 282 284 0 0 +.0062 0 4075e-7 0 1 0
 75e-7 0 0 1 31 255 27 53 0 30 285 0 0 +.0062 0 4075e-7 0 1 0 0 0 1 75e-7 29 28
 78 0 31 286 0 .0062 .028 4e-4 19 29 1 0 12 283 0 287 V0 16 30 33 0 ?288 0 289 2
7 0 0 12 18 31 77 0 290 0 291 28 ?12 17 290 0 292 290 290 31 293 294 0 293 -18 2
91 72 0 295 31 296 286 ?12 17 295 0 297 295 295 291 298 299 0 298 -18 296 67 0 3
00 291 301 302 ?12 29 286 73 0 291 302 28 .0062 .028 564970975818618e-33 29 302
 68 0 296 303 286 .0062 -16940658945086e-34 0 29 303 63 0 301 0 302 .0062 0 4e-4
 18 301 62 0 304 296 0 303 ?12 17 304 0 305 304 304 301 306 289 0 306 -15 305 30
 0 304 307 308 17 306 0 309 310 310 301 304 289 0 288 +16 289 29 0 ?306 30 311 2
85 0 0 12 16 311 25 0 ?312 289 313 314 0 0 12 31 285 52 0 289 314 27 0 +.0062 -7
49999999999969e-20 4e-4 0 0 1 0 -1 0 75e-7 31 314 51 0 311 315 285 0 +.0062 -749
999999999969e-20 0 0 -612323399573677e-31 1 0 -1 -612323399573677e-31 75e-7 31 3
15 50 0 313 316 314 0 +.0062 0 -749999999999969e-20 0 -1 0 0 0 -1 75e-7 16 313 2
1 0 ?317 311 318 315 0 0 12 31 316 49 0 318 319 315 0 +.0062 .028 -7499999999999
69e-20 0 -1 0 0 0 -1 75e-7 16 318 17 0 ?320 313 299 316 0 0 12 31 319 48 0 299 3
21 316 0 +.0062 .0280075 0 0 0 -1 0 1 0 75e-7 16 299 13 0 ?298 318 322 319 0 0 1
2 31 321 47 0 322 323 319 0 +.0062 .0280075 4e-4 0 0 -1 0 1 0 75e-7 16 322 9 0 ?
324 299 294 321 0 0 12 31 323 46 0 294 0 321 0 +.0062 .028 4075e-7 0 1 0 0 0 1 7
5e-7 16 294 6 0 ?293 322 0 323 0 0 12 17 293 0 325 326 326 31 290 294 0 324 +15
 325 10 0 326 327 0 17 326 0 325 293 293 31 324 322 0 0 -17 324 0 328 324 324 31
 326 322 0 326 +15 328 11 0 324 329 0 14 329 12 330 ?327 331 297 25 332 +0 0 327
 331 287 81 1 330 375 134 329 333 0 334 335 336 14 327 2 335 ?0 329 325 25 337 +
0 0 0 329 287 14 331 16 334 ?329 338 339 25 340 +0 0 329 338 287 15 297 14 0 295
 329 328 51 332 39 0 329 337 340 0 +.0062 .0280075 4e-4 0 0 -1 75e-7 -1 0 0 13 2
87 4 0 0 0 0 0 0 29 282 14 282 36 341 ?342 0 292 25 26 +0 0 342 0 287 81 1 341 3
69 134 282 343 0 0 344 345 14 342 32 344 ?307 282 309 25 284 +0 0 307 282 287 15
 292 8 0 290 282 346 15 346 35 0 288 282 0 17 288 0 346 288 288 301 310 30 0 310
 +17 310 0 309 306 306 301 288 30 0 0 -15 309 34 0 310 342 0 81 1 344 370 134 34
2 347 0 341 348 349 14 307 28 348 ?350 342 305 25 351 +0 0 350 342 287 54 255 28
4 44 0 342 351 26 0 +.0062 0 4e-4 -1 0 0 749999999999964e-20 75e-7 0 0 1 51 351
 43 0 307 352 284 0 +.0062 -749999999999969e-20 0 0 0 1 75e-7 1 0 0 54 352 42 0
 350 353 351 0 +.0062 -16940658945086e-34 0 -1 0 0 749999999999969e-20 75e-7 0 0
 1 14 350 24 354 ?338 307 355 25 352 +0 0 338 307 287 51 353 41 0 338 340 352 0
 +.0062 .028 -749999999999969e-20 0 -1 0 75e-7 0 0 -1 14 338 20 356 ?331 350 357
 25 353 +0 0 331 350 287 54 340 40 0 331 332 353 0 +.0062 .028 564970975818618e-
33 -1 0 0 750000000000056e-20 75e-7 0 0 1 81 1 356 373 134 338 358 0 354 334 359
 15 357 22 0 300 338 360 17 300 0 357 300 300 296 317 313 0 317 -15 360 19 0 320
 338 0 17 320 0 360 320 320 291 361 318 0 361 +17 361 0 339 298 298 291 320 318
 0 0 -15 339 18 0 361 331 0 17 298 0 339 361 361 291 295 299 0 320 +17 317 0 355
 362 362 296 300 313 0 312 +15 355 26 0 362 350 0 17 362 0 355 317 317 296 312 3
11 0 0 -17 312 0 308 312 312 296 362 311 0 362 +15 308 27 0 312 307 0 81 1 358 3
68 151 338 0 356 363 0 364 81 1 354 372 134 350 363 0 348 356 365 81 1 334 374 1
34 331 366 0 356 330 367 83 3 359 .792156862745098 .819607843137255 .93333333333
3333 81 1 366 358 151 331 0 334 368 343 369 83 3 367 .792156862745098 .819607843
137255 .933333333333333 81 1 368 356 151 327 0 335 333 366 370 81 1 343 360 151
 282 0 341 366 347 371 82 1 369 -79166939 81 1 347 362 151 342 0 344 343 372 373
 82 1 371 -78904795 81 1 372 364 151 307 0 348 347 363 374 82 1 373 -78773723 81
 1 348 371 134 307 372 0 344 354 375 81 1 363 366 151 350 0 354 372 358 376 82 1
 374 -78314971 82 1 376 -78052827 83 3 375 .792156862745098 .819607843137255 .93
3333333333333 81 1 335 376 134 327 368 0 330 0 377 81 1 333 354 151 329 0 330 0
 368 378 82 1 370 -79232475 82 1 378 -79363547 83 3 377 .792156862745098 .819607
843137255 .933333333333333 83 3 365 .792156862745098 .819607843137255 .933333333
333333 82 1 364 -77921755 83 3 349 .792156862745098 .819607843137255 .9333333333
33333 83 3 345 .792156862745098 .819607843137255 .933333333333333 54 337 38 0 32
7 0 332 0 +.0062 .028 4e-4 -1 0 0 75e-7 75e-7 0 0 1 83 3 336 .792156862745098 .8
19607843137255 .933333333333333 19 283 82 0 12 0 29 25 S0 74 20 281 4 0 0 358 27
9 335 22 0 0 0 0 0 0 0 0 0 0 0 0 0 0 0 0 81 2 279 168 166 12 0 22 0 0 379 0 83 1
 379 1 84 5 280 fibre81 1 10 208 5 7 380 0 0 0 381 70 11 0 4 T7 0 0 4 20 1 382 3
82 13 13 99 0 7 0 383 0 0 384 0 50 14 94 0 383 385 0 0 +0 0 .03 1 0 0 0 0 -1 30
 15 98 0 18 386 0 0 +0 0 .03 0 0 -1 29 16 75 0 387 388 0 0 .003 0 19 17 33 0 7 3
84 0 389 V0 16 18 82 0 ?390 0 391 15 0 0 7 18 19 30 0 392 0 393 394 ?7 17 392 0
 395 396 397 19 398 399 0 400 +18 393 27 0 397 19 401 402 ?7 29 394 32 0 19 402
 403 0 .003 .03 29 402 29 0 393 404 394 .009 .003 .03 29 403 78 0 405 394 406 0
 0 0 18 405 69 0 407 408 0 403 ?7 29 406 77 0 408 403 388 .009 0 0 18 408 68 0 4
09 410 405 406 ?7 29 388 76 0 410 406 16 .009 .003 0 18 410 67 0 411 387 408 388
 ?7 17 411 0 412 413 414 410 415 416 0 417 +18 387 66 0 418 419 410 16 ?7 17 418
 0 420 400 417 387 421 422 0 423 +18 419 21 0 424 401 387 425 ?7 17 424 0 426 39
0 427 419 428 429 0 396 -18 401 24 0 428 393 419 404 ?7 29 425 23 0 419 0 404 0
 0 .03 29 404 26 0 401 425 402 .009 0 .03 17 428 0 395 397 396 401 424 429 0 427
 +15 395 4 0 396 430 0 17 397 0 395 392 428 393 431 432 0 413 +17 396 0 395 428
 392 419 433 434 0 435 +16 429 9 0 ?428 432 434 436 0 0 7 17 427 0 426 424 409 4
01 414 391 0 431 -15 426 87 0 409 437 0 17 409 0 426 427 390 408 407 438 0 414 +
17 414 0 412 411 431 408 427 391 0 415 +16 391 81 0 ?414 18 439 386 0 0 7 17 431
 0 412 414 413 401 397 432 0 0 -15 412 85 0 411 440 0 17 413 0 412 431 411 393 4
17 439 0 398 -16 432 13 0 ?397 399 429 441 0 0 7 16 399 17 0 ?392 442 432 443 0
 0 7 30 441 15 0 432 436 443 0 +.009 0 .03 0 1 0 30 436 11 0 429 444 441 0 +0 0
 .03 1 0 0 30 443 19 0 399 441 445 0 +0 .003 .03 -1 0 0 30 445 74 0 446 443 447
 0 +0 0 0 0 -1 0 16 446 62 0 ?448 438 0 445 0 0 7 30 447 73 0 438 445 449 0 +0 0
 0 1 0 0 16 438 58 0 ?409 416 446 447 0 0 7 30 449 72 0 416 447 450 0 +.009 0 0
 0 1 0 16 416 54 0 ?411 422 438 449 0 0 7 30 450 71 0 422 449 451 0 +0 .003 0 -1
 0 0 16 422 50 0 ?418 434 416 450 0 0 7 30 451 95 0 442 450 452 0 +0 .003 .03 0
 0 -1 16 442 79 0 ?423 439 399 451 0 0 7 30 452 96 0 439 451 386 0 +.009 .003 .0
3 0 0 -1 16 439 80 0 ?417 391 442 452 0 0 7 30 386 97 0 391 452 15 0 +.009 0 .03
 0 0 -1 17 417 0 420 418 398 410 413 439 0 421 +15 420 83 0 418 453 0 17 398 0 4
20 417 400 393 392 399 0 0 -17 421 0 454 415 455 410 418 422 0 0 -15 454 49 0 45
5 456 0 17 415 0 454 407 421 408 411 416 0 0 -17 455 0 454 421 407 387 448 446 0
 0 -17 407 0 454 455 415 405 409 438 0 390 -17 448 0 457 435 423 405 455 446 0 0
 +15 457 89 0 448 383 0 17 435 0 457 433 448 419 390 18 0 0 -17 423 0 457 448 43
3 387 400 442 0 455 +17 433 0 457 423 435 19 396 434 0 0 -17 400 0 420 398 418 1
9 423 442 0 433 -16 434 5 0 ?396 429 422 444 0 0 7 30 444 7 0 434 0 436 0 +0 0 .
03 0 -1 0 17 390 0 426 409 424 405 435 18 0 448 +14 383 90 458 ?437 0 457 13 14
 -0 0 437 0 389 81 1 458 202 134 383 459 0 0 460 461 14 437 88 460 ?440 383 426
 13 385 -0 0 440 383 389 13 389 34 0 0 0 0 0 0 17 383 81 1 460 203 134 437 462 0
 458 463 464 14 440 86 463 ?453 437 412 13 465 -0 0 453 437 389 50 385 93 0 437
 465 14 0 +0 0 .03 0 1 0 0 0 1 50 465 92 0 440 466 385 0 +.009 0 .03 -1 0 0 0 0
 1 50 466 91 0 453 467 465 0 +0 .003 .03 0 -1 0 0 0 -1 14 453 84 468 ?430 440 42
0 13 466 -0 0 430 440 389 50 467 70 0 456 469 466 0 +0 0 0 0 0 -1 -1 0 0 14 456
 48 470 ?0 430 454 13 467 +0 0 0 430 389 50 469 3 0 430 0 467 0 +0 0 .03 0 0 -1
 -1 0 0 14 430 1 471 ?456 453 395 13 469 -0 0 456 453 389 81 1 471 206 134 430 4
72 0 468 470 473 81 1 472 200 151 430 0 471 474 0 475 81 1 468 205 134 453 476 0
 463 471 477 81 1 470 207 134 456 474 0 471 0 478 83 3 473 1 1 1 81 1 474 198 15
1 456 0 470 476 472 479 83 3 478 1 1 1 81 1 476 196 151 453 0 468 480 474 481 82
 1 479 1019412584 81 1 480 194 151 440 0 463 462 476 482 82 1 481 1020330088 81
 1 463 204 134 440 480 0 460 468 483 81 1 462 192 151 437 0 460 459 480 484 82 1
 482 1020592232 81 1 459 190 151 383 0 458 0 462 485 82 1 484 1020854376 82 1 48
5 1021116520 83 3 483 1 1 1 83 3 477 1 1 1 82 1 475 1013776488 83 3 464 1 1 1 83
 3 461 1 1 1 19 384 100 0 7 0 17 13 S0 74 20 382 4 0 0 472 380 470 10 0 0 0 0 0
 0 0 0 0 0 0 0 0 0 0 0 81 2 380 144 166 7 0 10 0 0 486 0 83 1 486 1 84 8 381 hyd
rogel74 20 6 1 0 0 2 0 0 0 0 0 0 0 0 0 0 0 0 0 0 0 0 0 0 0 1 0 
